<?xml version="1.0" encoding="UTF-8"?>
<svg width="1200pt" height="1200pt" version="1.1" viewBox="0 0 1200 1200" xmlns="http://www.w3.org/2000/svg">
 <path d="m618.21 1182.2c89.105 0.16797 177.12-19.617 257.59-57.902 80.465-38.285 151.34-94.102 207.41-163.35 3.4609-4.2695 4.8789-9.8438 3.8711-15.25s-4.3359-10.094-9.1055-12.828c-4.7695-2.7383-10.5-3.2383-15.672-1.3789-113.59 40.922-237.33 44.195-352.93 9.3438-115.59-34.852-216.9-105.98-288.94-202.88-72.035-96.891-110.98-214.39-111.06-335.12-0.57422-129.22 43.961-254.59 125.93-354.49 3.4805-4.2695 4.9062-9.8555 3.9023-15.27-1.0039-5.418-4.3438-10.117-9.125-12.855-4.7812-2.7344-10.523-3.2266-15.703-1.3516-132.64 47.973-244.12 141.17-314.84 263.21-70.715 122.04-96.141 265.11-71.801 404.04 24.344 138.93 96.891 264.84 204.88 355.57 108 90.73 244.52 140.48 385.57 140.5zm-252.34-1101.6c-64.02 100.61-96.59 218.02-93.551 337.23 3.043 119.21 41.555 234.8 110.62 332.02 69.062 97.211 165.54 171.62 277.11 213.73 111.57 42.105 233.16 49.992 349.23 22.652-77.77 75.438-175.69 126.79-281.97 147.86-106.28 21.074-216.38 10.977-317.06-29.078-100.67-40.055-187.62-108.36-250.37-196.69-62.75-88.324-98.633-192.91-103.32-301.16-4.6914-108.25 22.012-215.54 76.891-308.96s135.59-168.99 232.43-217.6z"/>
 <path d="m1088.6 278.55c0-4.9727-1.9766-9.7422-5.4922-13.258s-8.2852-5.4922-13.258-5.4922h-190.43l203.68-203.76c3.5156-3.5156 5.4922-8.2852 5.4922-13.258 0-4.9688-1.9766-9.7383-5.4922-13.254-3.5156-3.5156-8.2812-5.4922-13.254-5.4922h-235.78c-6.6992 0-12.891 3.5703-16.238 9.375-3.3516 5.8008-3.3516 12.945 0 18.75 3.3477 5.8008 9.5391 9.375 16.238 9.375h190.52l-203.78 203.75c-3.5156 3.5156-5.4883 8.2852-5.4883 13.258 0 4.9727 1.9727 9.7383 5.4883 13.258 3.5156 3.5156 8.2852 5.4922 13.258 5.4922h235.78c4.9727 0 9.7422-1.9766 13.258-5.4922s5.4922-8.2852 5.4922-13.258z"/>
 <path d="m1162.5 604.78h-120.66l133.91-133.91c3.5117-3.5156 5.4883-8.2852 5.4883-13.254 0-4.9727-1.9766-9.7422-5.4922-13.258s-8.2812-5.4922-13.254-5.4922h-165.92c-6.6992 0-12.891 3.5742-16.238 9.375-3.3516 5.8008-3.3516 12.949 0 18.75 3.3477 5.8008 9.5391 9.375 16.238 9.375h120.66l-133.91 133.91v-0.003906c-3.5156 3.5195-5.4883 8.2852-5.4883 13.258s1.9727 9.7422 5.4883 13.258c3.5156 3.5156 8.2852 5.4922 13.258 5.4922h165.92c6.6992 0 12.887-3.5742 16.238-9.375 3.3477-5.8008 3.3477-12.949 0-18.75-3.3516-5.8008-9.5391-9.375-16.238-9.375z"/>
 <path d="m676.55 547.76c1.4219 3.4258 3.8242 6.3516 6.9102 8.4141 3.082 2.0586 6.707 3.1562 10.418 3.1562h133.88c6.6953 0 12.887-3.5742 16.238-9.375 3.3477-5.8008 3.3477-12.949 0-18.75-3.3516-5.8008-9.543-9.375-16.238-9.375h-88.613l101.87-101.83c3.5156-3.5156 5.4922-8.2852 5.4922-13.258 0-4.9727-1.9766-9.7383-5.4922-13.254-3.5156-3.5195-8.2852-5.4922-13.254-5.4961h-133.88c-6.6992 0-12.891 3.5742-16.238 9.375-3.3516 5.8047-3.3516 12.949 0 18.75 3.3477 5.8047 9.5391 9.375 16.238 9.375h88.613l-101.87 101.83c-2.625 2.6211-4.4102 5.9648-5.1367 9.6016-0.72266 3.6367-0.35156 7.4102 1.0664 10.836z"/>
</svg>
