<?xml version="1.0" encoding="UTF-8"?>
<svg width="1200pt" height="1200pt" version="1.1" viewBox="0 0 1200 1200" xmlns="http://www.w3.org/2000/svg">
 <path d="m584.79 404.15c-1.9297-3.3672-6.207-4.5469-9.5898-2.6055-3.3672 1.9297-4.5273 6.2344-2.5977 9.6016l25.555 44.598c1.3047 2.2695 3.6641 3.5352 6.1016 3.5352 1.1797 0 2.3828-0.30078 3.4883-0.92969 3.3672-1.9297 4.5273-6.2344 2.5977-9.6016z"/>
 <path d="m837.07 844.57c-1.9141-3.375-6.207-4.5547-9.5898-2.6055-3.3672 1.9297-4.5273 6.2266-2.5977 9.5898l25.547 44.605c1.293 2.2695 3.6641 3.5352 6.1016 3.5352 1.1797 0 2.3828-0.30078 3.4883-0.92969 3.3672-1.9297 4.5273-6.2266 2.5977-9.5898z"/>
 <path d="m524.01 529.38-44.418-25.855c-3.3281-1.9492-7.6484-0.80469-9.6094 2.5391-1.9492 3.3555-0.81641 7.6602 2.5391 9.6172l44.418 25.855c1.1055 0.64844 2.3242 0.95703 3.5234 0.95703 2.4297 0 4.7812-1.2461 6.0859-3.4961 1.9492-3.3633 0.81641-7.668-2.5391-9.6172z"/>
 <path d="m962.7 784.64-44.418-25.855c-3.3359-1.9492-7.6406-0.80469-9.6094 2.5391-1.9492 3.3555-0.81641 7.6602 2.5391 9.6172l44.418 25.855c1.1055 0.64844 2.3242 0.95703 3.5234 0.95703 2.4297 0 4.7812-1.2461 6.0859-3.4961 1.9609-3.3555 0.82812-7.6562-2.5391-9.6172z"/>
 <path d="m489.52 656.42c3.8711 0 7.0234-3.1328 7.0312-7.0117 0.007812-3.8828-3.1211-7.0391-7.0039-7.0508l-51.402-0.17969h-0.027344c-3.8711 0-7.0234 3.1328-7.0312 7.0117-0.007813 3.8828 3.1211 7.0391 7.0039 7.0508l51.402 0.17969h0.027344z"/>
 <path d="m997.12 644.08-51.395-0.17969h-0.027344c-3.8711 0-7.0234 3.1328-7.0312 7.0117-0.007812 3.8828 3.1211 7.0391 7.0039 7.0508l51.395 0.17969h0.027344c3.8711 0 7.0234-3.1328 7.0312-7.0117 0.007812-3.875-3.125-7.0312-7.0039-7.0508z"/>
 <path d="m516.21 757.43-44.605 25.547c-3.3672 1.9297-4.5273 6.2266-2.5977 9.5898 1.293 2.2695 3.6641 3.5352 6.1016 3.5352 1.1797 0 2.3828-0.30078 3.4883-0.92969l44.605-25.547c3.3672-1.9297 4.5273-6.2266 2.5977-9.5898-1.9141-3.3672-6.1953-4.5547-9.5898-2.6055z"/>
 <path d="m915.54 543.82c1.1797 0 2.3828-0.30078 3.4883-0.92969l44.598-25.547c3.3672-1.9297 4.5273-6.2266 2.5977-9.5898-1.9219-3.375-6.1953-4.5469-9.5898-2.6055l-44.598 25.547c-3.3672 1.9297-4.5273 6.2266-2.5977 9.5898 1.293 2.2695 3.6523 3.5352 6.1016 3.5352z"/>
 <path d="m606.44 841.23c-3.3359-1.9492-7.6406-0.81641-9.6094 2.5391l-25.867 44.43c-1.9492 3.3555-0.81641 7.6602 2.5391 9.6094 1.1055 0.64844 2.3242 0.95703 3.5234 0.95703 2.4297 0 4.7812-1.2461 6.0859-3.4961l25.867-44.43c1.9492-3.3555 0.81641-7.6562-2.5391-9.6094z"/>
 <path d="m861.7 402.52c-3.3359-1.9492-7.6484-0.80469-9.6094 2.5391l-25.855 44.418c-1.9492 3.3555-0.81641 7.6602 2.5391 9.6172 1.1055 0.64844 2.3242 0.95703 3.5234 0.95703 2.4297 0 4.7812-1.2461 6.0859-3.4961l25.855-44.418c1.9609-3.3633 0.81641-7.6641-2.5391-9.6172z"/>
 <path d="m716.86 871.22h-0.027344c-3.8711 0-7.0234 3.1328-7.0312 7.0117l-0.17969 51.402c-0.007813 3.8828 3.1211 7.0391 7.0039 7.0508h0.027344c3.8711 0 7.0234-3.1328 7.0312-7.0117l0.17969-51.402c0.007813-3.8828-3.1211-7.043-7.0039-7.0508z"/>
 <path d="m718.37 429.1h0.019531c3.8711 0 7.0234-3.1328 7.0312-7.0117l0.16797-51.402c0.007812-3.8828-3.1211-7.0391-7.0117-7.0508h-0.019531c-3.8711 0-7.0234 3.1328-7.0312 7.0117l-0.16797 51.402c-0.007813 3.8828 3.1211 7.043 7.0117 7.0508z"/>
 <path d="m1010.6 518.14c-51.844-115.04-166.91-189.38-293.14-189.38-45.582 0-89.945 9.5703-131.84 28.453-161.52 72.797-233.72 263.44-160.91 424.97 3.2422 7.1914 6.7305 14.223 10.445 21.086 55.828 102.96 164.34 168.31 282.68 168.31h0.027344c45.562 0 89.914-9.5703 131.81-28.453 161.53-72.816 233.73-263.46 160.92-424.99zm-166.7 412.15c-15.027 6.7695-30.375 12.289-45.992 16.547-26.035 7.0859-52.82 10.668-80.055 10.668-120.71-0.007812-230.74-71.102-280.31-181.11-69.617-154.46-0.57813-336.75 153.88-406.37 40.051-18.047 82.473-27.207 126.05-27.207 120.7 0 230.73 71.082 280.31 181.09 69.617 154.46 0.58984 336.77-153.88 406.38z"/>
 <path d="m950.91 361.78 25.18-44.277c1.9141-3.375 0.73047-7.6602-2.6328-9.582l-91.695-52.219c-3.3828-1.9219-7.668-0.75-9.582 2.625l-25.191 44.176c-29.551-11.07-60.461-18.234-92.043-21.355l-0.25391-46.93 25.453-0.14062c3.8828-0.019531 7.0117-3.1875 6.9922-7.0703l-0.21484-41.277c-0.007812-1.8672-0.75781-3.6484-2.0898-4.9609-1.3203-1.3047-3.0938-2.0352-4.9414-2.0352h-0.039062l-129.66 0.71094c-1.8672 0.007813-3.6562 0.75781-4.9609 2.0898-1.3047 1.332-2.043 3.1211-2.0352 4.9883l0.22656 41.277c0.019531 3.8711 3.168 6.9922 7.0312 6.9922h0.039062l25.461-0.14062 0.26172 46.941c-31.566 3.4766-62.383 10.977-91.801 22.379l-25.672-43.918c-1.9688-3.3555-6.2812-4.4922-9.6094-2.5234l-91.117 53.242c-3.3477 1.9492-4.4922 6.2539-2.5312 9.6094l25.648 43.996c-86.156 71.297-135.2 175.78-134.57 287.77 1.1055 203.54 167.54 369.14 371 369.14h2.0898c204.61-1.1328 370.13-168.56 369-373.23-0.61328-112-50.805-215.95-137.74-286.29zm-70.012-90.383 79.492 45.262-20.617 36.273c-3.4023-2.5586-6.9375-4.8945-10.414-7.332-2.1953-1.5391-4.3594-3.1484-6.5898-4.6406-6.9922-4.668-14.102-9.1328-21.375-13.285-0.085938-0.046875-0.16797-0.085937-0.24219-0.13281-7.1992-4.1055-14.551-7.9023-21.992-11.492-2.4844-1.1914-5.0078-2.25-7.5078-3.3828-3.7695-1.7148-7.5078-3.5234-11.344-5.1094zm-223.62-77.938 115.59-0.63672 0.14844 27.215-23.98 0.13281c-0.50781-0.09375-0.99219-0.12109-1.4727 0l-64.668 0.36719h-0.027344l-25.434 0.14063zm83.336 40.82 0.24219 45.516c-0.86328-0.054687-1.7734-0.039063-2.6445-0.085937-6.8359-0.39453-13.754-0.66406-20.758-0.66406h-1.8945c-7.5469 0.039063-15.086 0.40234-22.586 0.91797-0.91016 0.054687-1.8203 0.039062-2.7188 0.11328l-0.25391-45.523zm-190.46 38.934 21 35.926c-3.8906 1.6602-7.668 3.543-11.504 5.3438-2.4102 1.125-4.8477 2.1758-7.2266 3.3555-7.3789 3.6562-14.652 7.5195-21.758 11.672-0.20703 0.12109-0.42969 0.24219-0.63672 0.375-7.1328 4.1797-14.09 8.6641-20.934 13.332-2.2891 1.5664-4.4922 3.2539-6.75 4.875-3.3828 2.4297-6.8359 4.7617-10.145 7.3125l-21.02-36.039zm169.43 734.01h-2.0156c-195.75 0-355.87-159.32-356.93-355.15-0.60156-109.71 48.215-212.01 133.97-280.67 7.7812-6.2734 15.871-12.094 24.113-17.652 20.492-13.82 42.289-25.5 65.223-34.68 31.855-12.957 65.492-21.141 100.01-24.328h0.019531c10.414-1.0312 21.074-1.5742 31.668-1.6328h1.8203c10.145 0 20.195 0.42969 29.906 1.293 34.539 2.8047 68.258 10.613 100.27 23.242 32.23 12.469 62.465 29.727 89.887 51.32 0.007812 0 0.019531 0 0.019531 0.007812 86.484 67.715 136.45 169.46 137.04 279.17 1.0977 196.9-158.16 357.98-355 359.08z"/>
 <path d="m834.66 810.96c1.4805 0 2.9727-0.46875 4.2461-1.4336 3.0938-2.3516 3.6953-6.7578 1.3398-9.8516l-81.102-106.54c2.043-1.9883 4.0117-4.0781 5.7852-6.375 9.7695-12.637 14.035-28.332 12.008-44.184-3.4961-27.355-25.406-48.43-52.105-51.723l0.30859-93.395c0.007813-3.8828-3.1211-7.0391-7.0039-7.0508h-0.027344c-3.8711 0-7.0234 3.1328-7.0312 7.0117l-0.30859 93.348c-0.24219 0.027344-0.49609 0.019531-0.75 0.054687-32.719 4.1914-55.941 34.211-51.758 66.93 3.8047 29.773 29.289 52.238 59.258 52.238 2.5391 0 5.0898-0.16016 7.6602-0.48828 8.1953-1.0391 15.898-3.7305 22.801-7.8086l81.074 106.49c1.3867 1.8164 3.4883 2.7734 5.6055 2.7734zm-111.26-115.42c-1.9766 0.25391-3.9297 0.38281-5.8672 0.38281h-0.007812c-22.914 0-42.395-17.184-45.309-39.957-3.1953-25.031 14.57-48 39.59-51.195 1.9688-0.25391 3.9297-0.375 5.8594-0.375 22.922 0 42.414 17.184 45.328 39.965 1.5547 12.121-1.7148 24.121-9.1797 33.789-7.4922 9.6758-18.281 15.844-30.414 17.391z"/>
 <path d="m192.18 361.83h193.23c3.8828 0 7.0312-3.1484 7.0312-7.0312s-3.1484-7.0312-7.0312-7.0312h-193.23c-3.8828 0-7.0312 3.1484-7.0312 7.0312s3.1484 7.0312 7.0312 7.0312z"/>
 <path d="m300.82 494.54c0-3.8828-3.1484-7.0312-7.0312-7.0312h-175.43c-3.8828 0-7.0312 3.1484-7.0312 7.0312 0 3.8828 3.1484 7.0312 7.0312 7.0312h175.43c3.8828 0 7.0312-3.1484 7.0312-7.0312z"/>
 <path d="m385.41 894.66h-193.23c-3.8828 0-7.0312 3.1484-7.0312 7.0312s3.1484 7.0312 7.0312 7.0312h193.23c3.8828 0 7.0312-3.1484 7.0312-7.0312s-3.1484-7.0312-7.0312-7.0312z"/>
 <path d="m300.82 761.93c0-3.8828-3.1484-7.0312-7.0312-7.0312h-158.45c-3.8828 0-7.0312 3.1484-7.0312 7.0312 0 3.8828 3.1484 7.0312 7.0312 7.0312h158.45c3.8828 0 7.0312-3.1406 7.0312-7.0312z"/>
 <path d="m192.18 627.28c-3.8828 0-7.0312 3.1484-7.0312 7.0312s3.1484 7.0312 7.0312 7.0312h90.496c3.8828 0 7.0312-3.1484 7.0312-7.0312s-3.1484-7.0312-7.0312-7.0312z"/>
</svg>
