<?xml version="1.0" encoding="UTF-8"?>
<svg width="1200pt" height="1200pt" version="1.1" viewBox="0 0 1200 1200" xmlns="http://www.w3.org/2000/svg">
 <path d="m149.35 709.31c4.7188-0.45312 8.8516-0.8125 12.16-0.97266 8.3594-0.51953 16.641-1.0664 25-1.625 39.973-2.7461 81.254-5.5586 121.04 1.8945l7.4258 1.4258c31.387 5.8945 61.508 11.613 92.625 11.613 12.027 0 24.266-0.83984 36.746-2.8789 14.172-2.3203 28.414-5.4922 42.16-8.5352 7.9219-1.7617 15.707-3.4805 23.492-5.0781 0 0 4.7617-0.33203 5.9609-1.1484 22.105-4.2539 43.988-6.9453 66.906-4.8789l28.879-0.96094c2.7852-0.23828 5.5469-0.32031 8.3086-0.45312 0.87891 0.33203 5.7852 0.078124 6.1719-0.17188 26.973-0.14844 53.309 5.6406 80.961 11.773 13.746 3.0547 28 6.2266 42.16 8.5078 44.719 7.2812 85.852-0.49219 129.38-8.707l7.3984-1.3984c39.785-7.4648 81.094-4.668 121.04-1.9219 8.3594 0.57422 16.691 1.1484 25.027 1.6016 3.2812 0.22656 7.4531 0.57422 12.188 1 31.199 2.7852 78.332 7 94.922-15.066 2.5078-3.3594 1.8008-8.0547-1.5078-10.547-3.3086-2.4805-8-1.8125-10.492 1.5195-11.586 15.426-58.852 11.172-81.586 9.1328-4.9219-0.45312-9.2148-0.82812-12.652-1.0273-8.2812-0.46484-16.559-1.0391-24.84-1.6016-40.852-2.7852-83.148-5.6797-124.84 2.1328l-7.4531 1.3867c-28.492 5.3984-55.934 10.465-83.691 11.188-100.51-52.18-174.68-157.67-177.83-162.18-5.0781-7.1875-14.066-12.078-23.988-13.055-9.7852-0.87891-19.039 1.8789-25.238 7.8125-2.8125 2.7344-5.1055 5.6523-7.0547 8.707-5.1328-0.77344-23.121-4.6797-43.027-23.148-0.21484-0.17188-0.44141-0.23828-0.60156-0.375-1.2539-5.8008-2.9453-11.559-5.0781-17.309l1.1992 0.17188-6.7734-13.266c-17.867-35-51.012-57.586-84.453-57.586-9.4258 0-18.547 1.7852-27.188 5.3086-33.668 13.801-52.574 52.039-46.973 95.188l2.1055 16.309 0.83984-0.93359c1.332 5.1328 2.8672 10 4.7344 14.613 16.398 39.973 52.027 66.828 88.691 66.828 9.3984 0 18.547-1.7852 27.133-5.2812 20.492-8.4141 35.133-25.707 42.574-47.105l40.707 33.68c0.46484 0.375 0.98828 0.60156 1.4805 0.85156 0.1875 0.82812 0.28125 1.7188 0.46484 2.5195 0.78516 4.4648 1.5352 8.7461 2.1328 12.801l3.7188 26.547c1.2539 8.9883 2.5078 17.945 3.8281 26.945-18.359 0.30859-36.359 2.9219-54.094 6.3984l-140.21-19.586-27.215-27.48c-2.8125-2.8398-7.2656-2.9727-10.266-0.38672-3 2.6016-3.4648 7.0664-1.0664 10.227 0.38672 0.50781 2.375 3.7852 1.6406 5.9883-0.60156 1.8281-3.4414 3.6406-7.6523 5-8.332-0.25391-29.641 0.60156-35.281 12.586-2.1602 4.5195-1.668 9.4531 1.0938 14.691-35.266-3.9609-70.707-1.625-105.13 0.73437-8.2812 0.58594-16.559 1.1484-24.84 1.625-3.4141 0.1875-7.7344 0.57422-12.652 1.0117-22.734 2.0391-70.027 6.2656-81.586-9.1211-2.4805-3.332-7.1875-4.0117-10.492-1.5195-3.332 2.4805-3.9883 7.1992-1.5078 10.52 16.594 22.117 63.781 17.879 94.98 15.066zm216.41-152.41c-2.1875-5.9727-3.9336-12.387-5.0547-19.602 0.76172-0.82812 1.1484-1.2266 0.73438-0.80078 26.641-12.48 71.199-33.375 124.97-33.773 0.13281 0 2.3477 0.10547 5.7344 0.49219 0.73437 1.5352 1.3984 3.0664 2.0273 4.668 1.3867 3.4141 2.2656 6.8789 3.3086 10.293l-93.906 26.535c-5.4414-3.6133-13.309-4.6914-21.227-2.2812-8.2305 2.5078-14.258 8.1328-16.59 14.469zm97.293 56.492c-6.7734 2.7617-13.988 4.1719-21.426 4.1719-25.281 0-50.055-15.922-65.879-40.762 4.9453 1.8281 11.039 2.0781 17.105 0.22656 10-3.0391 16.828-10.719 17.52-18.602l90.281-25.547c5.0508 35.512-9.1758 68.871-37.602 80.512zm87.359-20.387-35-28.906c1.0391-6.3867 1.5352-12.988 1.4258-19.719 14.895 10.762 27.895 14.973 35.332 16.574-2.7461 10.156-2.8789 21.145-1.7578 32.051zm209.25 110.99c-0.23828-0.027343-0.46484-0.054687-0.70703-0.078125-100.28-35.16-127.24-95.535-134.29-122.61 26.664 32.531 75.094 85.102 135 122.69zm-184.07-155.04c2.9727-2.8672 8-4.2266 13.359-3.7188 2.375 0.23828 4.5859 0.87891 6.5859 1.7617 18.668 23.215 25.707 87.227 28.148 121.36l1.6914 16.828c-4.9727-0.70703-9.7617-1.1719-14.586-1.4414-3.8789-0.1875-7.7852-0.25391-11.828-0.13281-5.0781 0.13281-18.613 0.39844-20.105 0.30859-1.3984-9.7852-2.8125-19.574-4.1719-29.348l-3.7461-26.668c-0.60156-4.1484-1.3984-8.6133-2.1875-13.238-4.2266-23.711-9-50.535 6.8398-65.711zm-250.03 129.79c0.8125 0.066406 1.5859-0.078125 2.3203-0.29297 8.2812-2.375 14.012-6.1719 17.133-11.332l15.441 15.602c1.1719 1.1875 2.6797 1.9219 4.293 2.1602l102.11 14.266c-8.332 1.7734-16.668 3.4531-24.945 4.7852-42.105 6.8672-81.934-0.70703-124.17-8.6797l-7.4258-1.3867c-0.625-0.13281-7.1328-11.105-7.2383-11.121 1.7812-2.375 12.875-4.2422 22.488-4z"/>
 <path d="m1144.1 725.87c-3.3086-2.5078-8.0273-1.8398-10.492 1.4922-11.559 15.414-58.828 11.16-81.535 9.1484-4.9453-0.42578-9.2656-0.82812-12.707-1.0273-8.2266-0.45312-16.508-1.0273-24.785-1.6016-40.879-2.8125-83.199-5.707-124.89 2.1211l-7.4258 1.3984c-42.215 7.9883-82.055 15.535-124.17 8.6797-13.746-2.2266-27.785-5.3477-41.359-8.375-32.238-7.1328-65.574-14.535-100.13-11.398-1.2266 0.13281-122.29 13.227-168.33 20.707-42.105 6.8281-81.973-0.71875-124.17-8.6797l-7.4531-1.3984c-41.691-7.8008-83.934-4.9062-124.84-2.1328-8.2812 0.54688-16.559 1.1484-24.812 1.6406-3.4648 0.1875-7.7617 0.55859-12.707 1-22.734 2.0547-69.973 6.2812-81.535-9.1328-2.4805-3.3477-7.2148-4-10.52-1.5078-3.3086 2.5078-4.0117 7.1602-1.5078 10.52 16.586 22.094 63.719 17.852 94.895 15.066 4.7617-0.38672 8.9336-0.78516 12.238-0.98828 8.332-0.46484 16.641-1.0391 25-1.5859 39.922-2.7461 81.254-5.5742 121.07 1.8945l7.375 1.4141c31.398 5.9062 61.48 11.613 92.625 11.613 12.078 0 24.266-0.83984 36.773-2.8672 45.625-7.4258 166.28-20.48 167.38-20.602 32.16-2.9727 62.895 3.9062 95.441 11.121 13.746 3.0547 28 6.2148 42.188 8.5469 44.734 7.2266 85.812-0.51953 129.35-8.7617l7.3984-1.3867c39.84-7.4805 81.172-4.6523 121.12-1.9336 8.3086 0.61328 16.641 1.1602 24.973 1.668 3.3086 0.17188 7.4531 0.51953 12.188 0.96094 31.199 2.8125 78.309 7.0273 94.895-15.105 2.457-3.3086 1.8164-8.0156-1.5156-10.508z"/>
</svg>
