<?xml version="1.0" encoding="UTF-8"?>
<svg width="1200pt" height="1200pt" version="1.1" viewBox="0 0 1200 1200" xmlns="http://www.w3.org/2000/svg">
 <path d="m793.96 216.14c-76 1.082-150.84 26.246-214.64 72.441-64.562 46.762-141.21 66.586-216.43 56.52-75.211-10.066-144.11-49.438-194.1-111.52-5.8594-7.3203-14.391-12.008-23.711-13.027-9.3477-1.0469-18.727 1.6836-26.055 7.582-7.3125 5.8906-11.98 14.453-12.961 23.793-0.98438 9.3398 1.7969 18.688 7.7227 25.973 60.789 75.504 146.07 124.5 239.66 137.02 93.59 12.527 188.78-12.473 267.3-69.34 64.562-46.754 141.29-66.312 216.5-56.242 75.215 10.066 144.11 49.152 194.09 111.25 5.8555 7.2656 14.348 11.918 23.621 12.938 9.2734 1.0195 18.574-1.6719 25.871-7.4922 7.3438-5.8594 12.051-14.406 13.074-23.75 1.0195-9.3398-1.7266-18.703-7.6328-26.016-60.789-75.512-146.07-124.5-239.65-137.02-17.547-2.3477-35.121-3.3516-52.66-3.1016zm0 282.87c-76 1.082-150.84 26.246-214.64 72.441-64.562 46.762-141.21 66.383-216.43 56.312-75.211-10.066-144.11-49.16-194.1-111.25-5.8477-7.3555-14.391-12.074-23.734-13.109s-18.711 1.6992-26.031 7.5938c-7.3125 5.8906-11.98 14.453-12.961 23.793-0.98438 9.3438 1.7969 18.688 7.7227 25.973 60.789 75.504 146.07 124.5 239.66 137.02 93.59 12.527 188.78-12.406 267.3-69.27 64.562-46.754 141.29-66.586 216.5-56.52 75.215 10.066 144.11 49.359 194.09 111.45 5.8438 7.2773 14.332 11.941 23.605 12.977 9.2773 1.0312 18.582-1.6484 25.887-7.4609 7.3438-5.8594 12.051-14.406 13.074-23.75 1.0195-9.3398-1.7266-18.703-7.6328-26.016-60.789-75.512-146.07-124.5-239.65-137.02-17.547-2.3477-35.121-3.4219-52.66-3.1719zm0 282.94c-76 1.082-150.84 26.246-214.64 72.441-64.562 46.762-141.21 66.312-216.43 56.242-75.211-10.066-144.11-49.16-194.09-111.25h-0.003906c-5.8594-7.3438-14.406-12.051-23.75-13.074-9.3398-1.0195-18.703 1.7266-26.016 7.6289-7.3125 5.8906-11.98 14.453-12.961 23.793-0.98438 9.3438 1.7969 18.688 7.7227 25.973 60.793 75.504 146.07 124.5 239.66 137.03 93.59 12.527 188.78-12.406 267.3-69.27 64.562-46.754 141.29-66.656 216.5-56.59 75.215 10.066 144.11 49.43 194.09 111.52v-0.003907c5.8555 7.2656 14.348 11.918 23.621 12.938 9.2734 1.0234 18.574-1.6719 25.871-7.4922 7.3438-5.8594 12.051-14.406 13.07-23.75 1.0234-9.3398-1.7227-18.703-7.6289-26.012-60.789-75.516-146.07-124.5-239.65-137.03-17.547-2.3477-35.121-3.3516-52.66-3.1016z" fill-rule="evenodd"/>
</svg>
