<?xml version="1.0" encoding="UTF-8"?>
<svg width="1200pt" height="1200pt" version="1.1" viewBox="0 0 1200 1200" xmlns="http://www.w3.org/2000/svg">
 <path d="m1194.6 614.48c-2.0938-9.4141-14.094-20.332-87.801-30.055l-426.96-26.148c-0.22656-2.4922-0.50781-4.9727-0.89453-7.4531h0.625l-2.1992-9.332c-0.066407-0.28125-0.19922-0.53516-0.26562-0.8125l-1.1875-4.9609h-0.375c-11.254-37.746-41.453-63.762-75.535-63.762-34.066 0-64.266 26.012-75.52 63.762h-0.38672l-1.1719 4.9609c-0.078124 0.28125-0.19922 0.53516-0.26562 0.8125l-2.2148 9.332h0.625c-0.35938 2.4805-0.65234 4.9727-0.86719 7.4531l-427.51 26.203c-73.16 9.668-85.172 20.574-87.254 30-1.3086 5.8398 1.9883 10.906 5.8398 13.375 1.4531 0.94531 3.2383 1.332 4.9609 1.1328l23.945-2.9336c-2.0938 2.1484-2.7461 5.332-1.5742 8.1484 1.3203 3.1602 4.6133 5.0391 7.9883 4.5352l53.465-7.6406c2.5195-0.38672 4.7188-2.0117 5.7734-4.3594l4.0273-8.9453 270.04 2.0781 149.95 30.613c-14.691 2.332-29.172 5.4922-43.414 8.6406-13.559 3.0273-27.574 6.1328-41.348 8.375-42.105 6.8398-81.961-0.67969-124.15-8.6797l-7.4531-1.3984c-41.691-7.8008-83.961-4.9219-124.85-2.1328-8.2656 0.54688-16.547 1.1328-24.828 1.6133-3.4414 0.22656-7.7617 0.58594-12.652 1.0273-22.707 2.0391-70.012 6.2812-81.574-9.1211-2.4922-3.332-7.1992-4.0273-10.52-1.5078-3.3203 2.4805-3.9883 7.1875-1.4922 10.52 16.586 22.078 63.734 17.895 94.945 15.055 4.7188-0.41406 8.8789-0.8125 12.188-0.96094 8.3086-0.49219 16.641-1.0664 24.973-1.668 39.945-2.707 81.254-5.5352 121.05 1.9453l7.4141 1.3867c31.387 5.9219 61.508 11.613 92.625 11.613 12.055 0 24.238-0.83984 36.746-2.8789 14.172-2.3086 28.414-5.4805 42.16-8.5352 32.574-7.2266 63.348-14.055 96.359-11.105l5.625-0.19922c2.7617 0.32031 5.5469 0.53516 8.3594 0.53516 4.1055 0 8.0938-0.48047 12.027-1.1992l2.8672-0.09375c32.105-2.9219 62.895 3.9062 95.441 11.148 13.746 3.0547 28 6.2148 42.16 8.5195 44.719 7.2539 85.84-0.51953 129.36-8.7188l7.4141-1.3984c39.812-7.4805 81.121-4.6523 121.07-1.9453 8.3477 0.58594 16.668 1.1602 25 1.625 3.2812 0.21484 7.4531 0.57422 12.16 0.98828 31.215 2.7852 78.359 7.0117 94.945-15.094 2.5078-3.3086 1.8281-8-1.4922-10.52-3.3203-2.4648-8.0391-1.8008-10.508 1.5078-11.559 15.453-58.852 11.199-81.586 9.1602-4.8945-0.44141-9.2148-0.83984-12.652-1.0117-8.2656-0.46484-16.559-1.0664-24.828-1.625-40.895-2.7852-83.16-5.6914-124.85 2.1602l-7.4258 1.3867c-42.215 7.9883-82.055 15.508-124.17 8.6523-13.762-2.2266-27.773-5.332-41.348-8.3477-13.465-2.9883-27.121-5.9727-40.945-8.2656l146.07-29.922 271.45-2.2383 4.0117 8.9453c1.0547 2.3477 3.2539 3.9727 5.8008 4.3594l53.453 7.6406c3.375 0.50781 6.668-1.375 8-4.5352 1.1719-2.8125 0.51953-6-1.5586-8.1484l23.934 2.9336c1.7461 0.19922 3.4922-0.19922 4.9727-1.1328 3.8047-2.4531 7.1094-7.5195 5.8164-13.359zm-658.46-63.652h127.76c0.96094 5.5586 1.4531 11.133 1.4531 16.68 0 1.7188-0.32031 3.2812-0.39844 4.9727h-12.348c-4.4648-2.8398-11.188-4.7188-18.812-4.7188s-14.348 1.8789-18.828 4.7188h-31.75c-4.4805-2.8398-11.199-4.7188-18.812-4.7188-7.625 0-14.359 1.8789-18.84 4.7188h-10.48c-0.09375-1.6914-0.41406-3.2539-0.41406-4.9727 0-5.5195 0.49609-11.121 1.4688-16.68zm-154.7 54.184-276.36-2.2656c-2.7344 0.066406-5.707 1.707-6.9219 4.4141l-4.3164 9.6406-21.121 3.0391c1.6133-2.0781 2.0547-4.8789 1.0117-7.4141-1.2656-3.1719-4.5078-5.0938-7.8672-4.6523l-33.895 4.1484c10.121-3.5195 28.586-8.0391 62.188-12.508l425.75-26.082c1.332 25.895 11.32 48.945 26.641 65.266zm227.08 41.922-13.348 0.46484c-28.215-2.6016-51.375-27.094-58.215-59.895h7.1211c4.3867 3.3984 11.84 5.625 20.309 5.625 8.4648 0 15.922-2.2266 20.293-5.625h28.785c4.3867 3.3984 11.84 5.625 20.309 5.625 8.4648 0 15.906-2.2266 20.293-5.625h8.9727c-6.5469 31.324-27.973 55.121-54.52 59.43zm525.64-39.16c-3.3867-0.44141-6.6016 1.4648-7.8672 4.6523-1.0391 2.5195-0.60156 5.3203 1.0117 7.4141l-21.121-3.0391-4.3203-9.6523c-1.2266-2.707-3.4414-4.4531-6.9219-4.4141l-277.8 2.4141-163.61 33.426c15.281-16.293 25.266-39.375 26.602-65.238l425.24 26.012c33.852 4.4922 52.441 9.0391 62.613 12.559z"/>
 <path d="m1134 690.65c-11.559 15.426-58.852 11.199-81.559 9.1328-4.9219-0.41406-9.2148-0.8125-12.652-1-8.2812-0.48047-16.547-1.0664-24.84-1.6133-40.879-2.8008-83.148-5.6797-124.85 2.1602l-7.4414 1.3867c-42.188 7.9883-82.055 15.52-124.15 8.668-13.773-2.2266-27.801-5.3477-41.375-8.332-32.254-7.1719-65.559-14.602-100.16-11.426-1.2148 0.13281-122.28 13.227-168.33 20.707-42.094 6.8516-81.945-0.70703-124.13-8.6797l-7.4648-1.3867c-41.691-7.8281-83.961-4.9336-124.85-2.1328-8.2656 0.57422-16.574 1.1211-24.828 1.6133-3.4414 0.1875-7.7617 0.57422-12.691 1-22.707 2.0547-69.988 6.2656-81.535-9.1484-2.5078-3.3086-7.2266-3.9883-10.508-1.4922-3.332 2.5078-4.0117 7.2148-1.5078 10.492 16.559 22.133 63.719 17.906 94.895 15.105 4.7344-0.39844 8.8945-0.78516 12.215-1 8.332-0.45312 16.668-1.0273 25-1.6016 39.945-2.7344 81.254-5.5469 121.05 1.9219l7.4648 1.4141c31.359 5.9219 61.453 11.613 92.547 11.613 12.055 0 24.266-0.86719 36.746-2.8789 45.668-7.4414 166.33-20.465 167.41-20.586 32.094-2.9453 62.867 3.8945 95.398 11.121 13.773 3.0547 28.027 6.2266 42.215 8.5352 44.734 7.2656 85.84-0.53516 129.38-8.7461l7.3984-1.3984c39.812-7.4648 81.105-4.6523 121.07-1.9062 8.332 0.58594 16.668 1.1211 24.988 1.625 3.293 0.17188 7.4648 0.55859 12.172 0.98828 31.199 2.7852 78.348 7.0117 94.945-15.094 2.4805-3.3086 1.8125-8.0391-1.5078-10.508-3.3086-2.5273-8.0273-1.875-10.508 1.4453z"/>
</svg>
