<?xml version="1.0" encoding="UTF-8"?>
<svg width="1200pt" height="1200pt" version="1.1" viewBox="0 0 1200 1200" xmlns="http://www.w3.org/2000/svg">
 <path d="m807.06 425.82m-0.35547-9.7734h-0.71094c-5.5078 0.71094-9.2422 5.5078-8.707 11.02 0.35547 3.1992 2.3086 6.043 5.1523 7.6406 0.88672 0.53125 1.7773 0.71094 2.8438 0.71094h0.71094c5.5078-0.71094 9.2422-5.5078 8.707-11.02-0.35547-3.1992-2.3086-6.043-5.1523-7.6406-0.88672-0.35547-1.9531-0.71094-2.8438-0.71094z"/>
 <path d="m789.46 406.27m-0.89062 0.17969c0.35547 0.35547 0.71094 0.88672 0.71094 1.4219 0.17578 1.0664-0.53125 2.1328-1.4219 2.6641-0.35547-0.35547-0.71094-0.88672-0.71094-1.4219-0.17578-0.88672 0.17578-1.4219 0.53125-1.9531 0.17969-0.17969 0.53516-0.53516 0.89062-0.71094m0.53516-10.133h-0.88672c-6.7539 0.71094-11.73 6.9297-10.84 13.684 0.53125 4.0859 2.8438 7.6406 6.3984 9.418 1.0664 0.53125 2.3086 0.88672 3.5547 0.88672h0.88672c6.7539-0.71094 11.73-6.9297 10.84-13.684-0.53125-4.0859-2.8438-7.6406-6.3984-9.418-1.0664-0.53125-2.3125-0.88672-3.5547-0.88672z"/>
 <path d="m766 386.19m-0.17969 0c1.5977 0.88672 2.6641 2.4883 2.8438 4.2656 0.35547 3.0195-1.7773 5.8633-4.7969 6.2188-1.5977-0.88672-2.6641-2.4883-2.8438-4.2656-0.17578-1.4219 0.17578-3.0195 1.2422-4.0859 0.89062-1.0664 2.1328-1.957 3.5547-2.1328m0.17969-9.7773h-1.0664c-8.5312 0.88672-14.574 8.707-13.508 17.062 0.53125 4.9766 3.5547 9.418 7.9961 11.906 1.4219 0.71094 2.8438 1.0664 4.4414 1.0664h1.0664c8.5312-0.88672 14.574-8.5312 13.684-17.062-0.53125-4.9766-3.5547-9.418-7.9961-11.906-1.5977-0.71094-3.0195-1.0664-4.6172-1.0664z"/>
 <path d="m730.63 366.46h0.35547c3.0195 0.71094 5.5078 2.8438 6.7539 5.6875 1.9531 4.7969-0.35547 10.484-5.332 12.262-0.17578 0-0.53125 0.17578-0.71094 0.17578h-0.35547c-3.0195-0.71094-5.5078-2.8438-6.7539-5.6875-1.9531-4.7969 0.35547-10.484 5.332-12.262 0.17969-0.17578 0.53516-0.17578 0.71094-0.17578m0-9.9531c-1.4219 0-3.0195 0.35547-4.2656 0.88672-9.9531 3.9102-14.75 15.285-10.84 25.059 2.3086 5.8633 7.4648 10.309 13.508 11.73 0.88672 0.17578 1.7773 0.35547 2.6641 0.35547 1.4219 0 3.0195-0.35547 4.2656-0.88672 9.9531-3.9102 14.75-15.285 10.84-25.059-2.3086-5.8633-7.4648-10.309-13.508-11.73-0.88672-0.17578-1.7734-0.35547-2.6641-0.35547z"/>
 <path d="m682.82 343.54c0.53125 0 1.2422 0 1.7773 0.17578 6.2188 1.4219 11.375 5.8633 13.684 11.73 1.9531 4.7969 1.7773 10.129-0.17578 14.93-2.1328 4.7969-5.8633 8.5312-10.664 10.309-0.88672 0.35547-1.9531 0.53125-2.8438 0.53125-0.53125 0-1.2422 0-1.7773-0.17578-6.2188-1.4219-11.375-5.8633-13.684-11.73-1.9531-4.7969-1.7773-10.129 0.17578-14.93 2.1328-4.7969 5.8633-8.5312 10.664-10.309 0.89062-0.35156 1.7773-0.53125 2.8438-0.53125m0-9.7734c-2.3086 0-4.4414 0.35547-6.5742 1.2422-15.105 6.043-22.395 23.105-16.352 38.035 3.5547 8.8867 11.195 15.461 20.617 17.594 1.2422 0.35547 2.6641 0.53125 3.9102 0.53125 2.3086 0 4.4414-0.35547 6.5742-1.2422 15.105-6.043 22.395-23.105 16.352-38.035-3.5547-8.8867-11.195-15.461-20.617-17.594-1.2422-0.35547-2.6641-0.53125-3.9102-0.53125z"/>
 <path d="m702.38 407.52c1.4219 0 2.6641 0.17578 4.0859 0.35547 32.523 5.1523 63.094 20.973 86.023 44.434 3.7305 3.7305 6.043 8.3516 6.9297 13.508 4.7969 27.547 1.5977 55.809-9.0625 81.758-0.35547 0.71094-0.53125 1.4219-0.53125 2.3086-5.5078 35.902-3.9102 72.16 5.1523 107.35 2.3086 12.617 0.53125 25.238-5.1523 36.789-5.6875 11.551-14.75 20.793-26.305 26.66-3.5547 1.7773-7.6406 2.8438-11.551 2.8438s-7.8203-0.88672-11.195-2.6641c-0.35547-0.17578-0.88672-0.35547-1.2422-0.71094-15.285-7.9961-26.66-21.328-31.992-37.855-5.332-16.527-3.7305-33.945 4.0859-49.23 0.17578-0.35547 0.35547-0.71094 0.35547-0.88672 8.3516-21.684 10.129-45.145 4.7969-67.895 0-0.17578 0-0.35547-0.17578-0.35547-6.9297-24.527-18.66-46.922-34.836-66.648-10.129-12.262-14.93-27.727-13.684-43.543 1.0664-13.508 6.043-26.125 14.574-36.613 4.6172-6.2305 11.902-9.6055 19.723-9.6055m0-9.7773c-10.664 0-20.793 4.7969-27.547 13.152-9.5977 11.906-15.461 26.66-16.707 41.945-1.4219 18.305 4.2656 36.434 15.816 50.477 15.285 18.484 26.48 39.988 33.059 63.094 4.7969 20.617 3.375 42.301-4.4414 62.207-18.84 36.613-4.4414 81.402 31.992 100.24 0.53125 0.17578 1.0664 0.53125 1.4219 0.71094 4.9766 2.3086 10.129 3.5547 15.461 3.5547 5.5078 0 11.02-1.2422 16.172-3.9102 27.191-13.863 42.121-44.078 36.613-74.293-8.707-33.945-10.484-69.137-4.9766-103.8 11.375-27.547 14.75-57.762 9.5977-87.09-1.2422-7.1094-4.6211-13.684-9.5977-18.84-24.703-25.238-56.695-41.766-91.531-47.277-1.7773 0.003906-3.5547-0.17578-5.332-0.17578z"/>
 <path d="m393.3 548.46c-0.88672 0-1.9531 0.17578-2.8438 0.71094-4.7969 2.4883-6.7539 8.5312-4.2656 13.328 1.4219 2.8438 4.2656 4.7969 7.4648 5.1523h0.71094c0.88672 0 1.9531-0.17578 2.8438-0.71094 4.7969-2.4883 6.7539-8.5312 4.2656-13.328-1.4219-2.8438-4.2656-4.7969-7.4648-5.1523h-0.71094z"/>
 <path d="m412.14 538.51m-0.53516 0.53125c0.53125 0.17578 0.88672 0.71094 1.2422 1.0664 0.53125 1.0664 0.35547 2.1328-0.53125 3.0195-0.53125-0.17578-0.88672-0.71094-1.2422-1.0664-0.35547-0.71094-0.35547-1.4219-0.17578-1.9531 0.17578-0.35547 0.35156-0.71094 0.70703-1.0664m-0.53125-10.129c-1.2422 0-2.3086 0.35547-3.375 0.88672-6.043 3.1992-8.3516 10.664-5.1523 16.707 1.9531 3.5547 5.332 6.043 9.418 6.5742h0.88672c1.2422 0 2.3086-0.35547 3.375-0.88672 6.043-3.1992 8.3516-10.664 5.1523-16.707-1.9531-3.5547-5.332-6.043-9.418-6.5742-0.17578 0.17578-0.53125 0-0.88672 0z"/>
 <path d="m434.71 518.96m-0.17578 0.17578c1.7773 0.35547 3.375 1.4219 4.0859 3.0195 1.4219 2.6641 0.35547 6.043-2.3086 7.4648-1.7773-0.35547-3.375-1.4219-4.0859-3.0195-0.71094-1.4219-0.88672-2.8438-0.35547-4.2656s1.418-2.4883 2.6641-3.1992m0-9.9531c-1.4219 0-3.0195 0.35547-4.2656 1.0664-7.6406 3.9102-10.484 13.328-6.5742 20.793 2.3086 4.4414 6.7539 7.4648 11.73 8.1758h1.0664c1.4219 0 3.0195-0.35547 4.2656-1.0664 7.6406-3.9102 10.484-13.328 6.5742-20.793-2.3086-4.4414-6.7539-7.4648-11.73-8.1758-0.35547 0.17969-0.71094 0-1.0664 0z"/>
 <path d="m470.08 499.76c0.17578 0 0.53125 0 0.71094 0.17578 2.8438 1.2422 4.9766 3.7305 5.6875 6.7539 1.0664 5.1523-2.1328 10.129-7.2852 11.375h-0.35547c-0.17578 0-0.53125 0-0.71094-0.17578-2.8438-1.2422-4.9766-3.7305-5.6875-6.7539-1.0664-5.1523 2.1328-10.129 7.2852-11.375h0.35547m0-9.9531c-0.88672 0-1.5977 0.17578-2.4883 0.35547-10.484 2.3086-17.062 12.617-14.75 22.926 1.4219 6.2188 5.6875 11.375 11.551 13.684 1.4219 0.53125 3.0195 0.88672 4.4414 0.88672 0.88672 0 1.5977-0.17578 2.4883-0.35547 10.484-2.3086 17.062-12.617 14.75-22.926-1.4219-6.2188-5.6875-11.375-11.551-13.684-1.418-0.53125-3.0195-0.88672-4.4414-0.88672z"/>
 <path d="m518.07 477.37c1.0664 0 1.9531 0.17578 3.0195 0.53125 5.8633 2.4883 10.309 7.6406 11.551 13.863 1.0664 5.1523 0.17578 10.309-2.6641 14.574-2.8438 4.4414-7.1094 7.4648-12.262 8.5312-0.53125 0.17578-1.0664 0.17578-1.5977 0.17578-1.0664 0-1.9531-0.17578-3.0195-0.53125-5.8633-2.4883-10.309-7.6406-11.551-13.863-1.0664-5.1523-0.17578-10.309 2.6641-14.574 2.8438-4.4414 7.1094-7.4648 12.262-8.5312 0.53125-0.17578 1.0664-0.17578 1.5977-0.17578m0-9.7773c-1.2422 0-2.4883 0.17578-3.7305 0.35547-15.816 3.375-25.77 19.016-22.395 34.836 2.1328 9.418 8.5312 17.062 17.418 20.793 2.1328 0.88672 4.4414 1.4219 6.7539 1.4219 1.2422 0 2.4883-0.17578 3.7305-0.35547 15.816-3.375 25.77-19.016 22.395-34.836-2.1328-9.418-8.5312-17.062-17.418-20.793-2.1328-1.0664-4.4414-1.4219-6.7539-1.4219z"/>
 <path d="m497.63 541.17c7.8203 0 15.105 3.5547 20.082 9.7734 8.3516 10.664 13.152 23.281 14.219 36.789 1.0664 15.816-3.9102 31.281-14.219 43.367-16.527 19.551-28.438 41.766-35.723 66.293 0 0.17578 0 0.35547-0.17578 0.35547-5.5078 22.57-4.2656 46.211 3.9102 68.07 0.17578 0.35547 0.17578 0.71094 0.35547 0.88672 0.17578 0.35547 0.35547 0.88672 0.71094 1.2422 15.285 32.168 1.4219 70.738-30.746 86.023-3.375 1.5977-7.1094 2.4883-11.02 2.4883-4.0859 0-8.1758-1.0664-11.906-3.0195-11.375-6.043-20.438-15.285-25.949-27.016-5.5078-11.551-7.1094-24.172-4.7969-36.789 9.418-35.191 11.551-71.27 6.3984-107.35-0.17578-0.71094-0.35547-1.5977-0.53125-2.3086-10.309-25.949-13.152-54.387-8.1758-81.934 0.88672-5.1523 3.375-9.7734 7.1094-13.508 23.281-23.281 54.031-38.746 86.555-43.543 1.4141 0.17969 2.6562 0.17969 3.9023 0.17969m0-9.9531c-1.7773 0-3.375 0.17578-5.1523 0.35547-34.836 5.1523-67.184 21.328-92.066 46.211-5.1523 5.1523-8.5312 11.551-9.7734 18.66-5.332 29.324-2.3086 59.539 8.707 87.266 4.9766 34.656 2.8438 69.848-6.2188 103.62-5.8633 30.035 8.707 60.43 35.723 74.648 5.1523 2.6641 10.84 4.0859 16.527 4.0859 5.1523 0 10.309-1.0664 15.105-3.375 37.145-17.594 52.965-62.027 35.367-99.176-0.17578-0.53125-0.53125-1.0664-0.71094-1.4219-7.4648-19.906-8.707-41.59-3.5547-62.207 6.7539-23.105 18.305-44.434 33.77-62.738 11.73-14.039 17.773-31.992 16.527-50.297-1.0664-15.461-6.7539-30.035-16.172-42.121-7.1055-8.5312-17.414-13.508-28.078-13.508z"/>
</svg>
