<?xml version="1.0" encoding="UTF-8"?>
<svg width="1200pt" height="1200pt" version="1.1" viewBox="0 0 1200 1200" xmlns="http://www.w3.org/2000/svg">
 <path d="m1141.7 647.09c-3.332-2.4922-8.0273-1.8281-10.492 1.5195-6.9727 9.2539-26.801 11.387-46.453 11.215-0.57422-0.32031-1.1484-0.65234-1.8281-0.8125l-167.57-35.602-123.93-47.652c-0.67969-0.25391-1.332-0.28125-2.0273-0.33203-1.332-1.6914-2.707-3.3594-4.3203-4.8516l113.23-49.613 122 27.359 1.6914 9.5742c0.46484 2.5352 2.1602 4.6797 4.5352 5.6406l49.973 20.508c3.1719 1.2812 6.8281 0.28125 8.8516-2.4648 1.8281-2.4258 1.9727-5.7188 0.46484-8.2656l22.508 8.6914c1.6133 0.61328 3.4141 0.67969 5.0781 0.10547 4.3203-1.4414 8.7734-5.5586 8.9336-11.547 0.28125-9.625-8.668-23.16-77.707-50.586-2.293-0.76172-10.16-4.3594-19.215-8.5586-47.453-21.934-100.21-45.281-125.79-43.652-54.785 3.2539-235.36 31.441-254.29 73.121-1.1211 2.4922-12.398 24.426-22.348 43.707-1.1992-0.28125-2.4531-0.28125-3.7188 0.054688-0.46484 0.14844-0.85156 0.42578-1.332 0.65234h-39.934c-0.21484 0-0.35938 0.09375-0.54688 0.12109-7.7617-22.691-26.398-43.453-52.785-55.215-0.027344-0.011719-0.054688-0.011719-0.054688-0.011719-0.027344-0.011719-0.027344-0.027344-0.027344-0.027344h-0.027343c-13.055-5.6914-27.133-8.707-40.812-8.707-31.934 0-58.801 15.812-70.133 41.215-7.6016 17.148-6.9453 36.254 0.16016 53.852l-247.48 2.5742c-77.027 2.3594-88.906 13.039-90.309 23.16-0.60156 4.0664 2.0781 8.4141 6.1719 9.0117 0.41406 0.039062 0.85156 0.066406 1.2539 0.066406 3.6016 0 6.5352-2.2383 7.0781-5.9219 0.76172-0.94531 9.1484-9.2383 76.121-11.32l255.11-2.6406c9.0664 13.785 22.453 25.801 39.172 33.988-5.0547 1-10.078 2-15.078 2.8125-42.078 6.8516-81.934-0.70703-124.17-8.6797l-7.4258-1.3867c-41.668-7.8008-83.961-4.9219-124.84-2.1328-8.2812 0.54688-16.535 1.1328-24.84 1.6016-3.4141 0.21484-7.7344 0.58594-12.652 1.0273-22.707 2.0547-70.027 6.293-81.586-9.1484-2.4805-3.3203-7.1875-3.9883-10.492-1.4922-3.332 2.5078-3.9883 7.1875-1.5078 10.535 16.586 22.105 63.746 17.879 94.945 15.066 4.7344-0.41406 8.8516-0.78516 12.16-0.97266 8.3594-0.49219 16.668-1.0547 24.973-1.625 40-2.7461 81.309-5.5469 121.09 1.9219l7.3984 1.3984c31.387 5.9219 61.508 11.625 92.652 11.625 12 0 24.215-0.85156 36.746-2.9062 14.172-2.2812 28.387-5.4531 42.16-8.5195 32.52-7.2148 63.309-14.078 96.332-11.121l28.895-0.96094c32.105-2.9062 62.867 3.9336 95.441 11.172 13.746 3.0547 28 6.2148 42.16 8.5195 44.734 7.2539 85.812-0.50781 129.38-8.7344l7.4258-1.4141c39.785-7.4805 81.121-4.6406 121.04-1.9219 8.332 0.57422 16.691 1.1328 25 1.625 3.3086 0.19922 7.4531 0.54688 12.188 0.98828 31.199 2.8125 78.332 7.0391 94.922-15.078 2.4883-3.3281 1.8086-8.0352-1.5-10.555zm-660.76-16.469c-3.0938 6.9609-4.1719 13.852-3.4141 19.105l-3.6406 8.1484c-0.13281-0.41406-0.26562-0.82812-0.49219-1.2266-0.078125-0.16016-0.027344-0.34766-0.13281-0.51953-0.90625-1.4805-1.6406-3.0781-2.4531-4.6523-0.625-1.1328-1.2812-2.2539-1.8008-3.4414-0.70703-1.5078-1.2266-3.0938-1.8008-4.6797-0.44141-1.1719-0.93359-2.3477-1.332-3.5469-0.46484-1.5859-0.8125-3.2266-1.1719-4.8672-0.26562-1.2266-0.65234-2.4258-0.85156-3.6406-0.30859-1.6133-0.38672-3.2656-0.57422-4.8945-0.13281-1.293-0.38672-2.5469-0.44141-3.8516-0.078124-1.6523 0-3.3086 0.027344-4.9453 0-1.3086-0.054687-2.5859 0.027344-3.8672 0.10547-1.7617 0.38672-3.4805 0.625-5.1992 0.1875-1.2266 0.23828-2.4648 0.49219-3.668 0.33203-1.9219 0.85156-3.8008 1.3867-5.6914 0.26562-1.0117 0.46484-2.0664 0.78516-3.0781 0.90625-2.8945 1.9727-5.7852 3.2266-8.6016 1.2539-2.7852 2.625-5.4805 4.1875-8.0547 0.51953-0.94531 1.1992-1.8125 1.8008-2.6914 1.0117-1.5859 2.0547-3.2266 3.1719-4.707 0.76172-0.98828 1.6133-1.8672 2.3984-2.8125 1.1211-1.332 2.1875-2.6523 3.3867-3.8945 0.85156-0.90625 1.8516-1.7188 2.7852-2.5859 1.1992-1.1328 2.375-2.2812 3.6406-3.3203 1.0117-0.82812 2.1055-1.5352 3.1484-2.3086 1.3086-0.93359 2.5469-1.9062 3.8789-2.7461 1.1211-0.71875 2.293-1.3086 3.4414-1.9453 1.3867-0.77344 2.7617-1.5586 4.1719-2.2656 1.1992-0.54688 2.4258-1 3.6133-1.4922 1.4805-0.61328 2.9453-1.2266 4.4531-1.7188 1.2539-0.41406 2.5078-0.71875 3.8008-1.0547 1.1992-0.33203 2.4258-0.65234 3.6914-0.90625 0.90625 0.42578 1.668 0.98828 2.5469 1.4531l-2.4531 5.4805c-4.3984 2.9453-8.8516 8.3477-11.934 15.293-3.0938 6.9453-4.1719 13.852-3.3867 19.121l-12.922 28.973c-4.3672 2.9414-8.7695 8.3281-11.887 15.301zm81.32-1.7461c-3.5742 8.0547-9.1484 14.879-16.535 20.266-0.054688 0.027344-0.078126 0.054688-0.10547 0.066407-18.988 2.0781-37.625 6.0547-55.906 10.148l0.96094-2.1484c4.8398-2.6133 9.9219-8.5352 13.387-16.281 3.4414-7.7188 4.4531-15.453 3.1211-20.84l11.691-26.254c4.8945-2.6406 9.9727-8.5469 13.414-16.281 3.4648-7.7461 4.4258-15.465 3.1484-20.84l0.93359-2.2148c25.449 19.102 37.035 49.367 25.891 74.379zm52.453 18.641-27.535 0.93359c-6.3594-0.57422-12.625-0.69141-18.906-0.625 3-3.9727 5.6797-8.2148 7.707-12.84 4.9453-11.078 6.3867-22.934 4.9219-34.68h34.773l0.49219 1.7461c0.8125 2.9883 3.3594 5.1875 6.4258 5.5078 0.26562 0.027344 0.54688 0.039062 0.8125 0.039062 2.7852 0 5.3867-1.5469 6.668-4.0547 0.98828-1.9062 4.7188-9.0781 9.1719-17.719 29.84 9.5469 50.785 37.055 52.398 68.254-25.133-5.1484-50.84-8.9492-76.93-6.5625zm139.33-89.398c-1.3984 0-2.7617 0.39844-3.9609 1.0781-0.33203 0.23828-38.027 22.508-100.81 9.4805-0.41406-0.066407-0.8125 0.066406-1.2539 0.039062 5.4141-10.535 10.16-19.801 10.988-21.602 12.426-27.387 159.29-59.465 241.45-64.375 24.012-1.3477 87.922 28.105 118.64 42.309 11.641 5.3594 17.867 8.2266 20.387 9.0391 31.719 12.613 48.641 21.574 57.652 27.508l-31.801-12.293c-3.1719-1.2383-6.7734-0.17188-8.7461 2.5469-1.6133 2.2148-1.8789 5.0664-0.83984 7.4648l-19.734-8.1055-1.8516-10.398c-0.51953-3-2.7852-5.3477-5.7344-6l-129.32-29.027c-1.5352-0.34766-3.1719-0.17188-4.6406 0.46484l-125 54.785c-4.8008-1.8086-9.9609-2.9141-15.426-2.9141z"/>
 <path d="m1129.6 694.99c-11.559 15.398-58.828 11.148-81.508 9.1484-4.9453-0.45312-9.2656-0.83984-12.707-1.0117-8.2539-0.50781-16.508-1.0547-24.785-1.6133-40.906-2.8125-83.172-5.707-124.92 2.1211l-7.4531 1.3984c-42.188 7.9727-82 15.508-124.12 8.668-13.773-2.2383-27.785-5.332-41.359-8.375-32.266-7.1602-65.602-14.535-100.19-11.387-1.1992 0.13281-122.27 13.188-168.31 20.68-42.105 6.8516-81.945-0.69141-124.17-8.6523l-7.4258-1.4141c-41.668-7.8008-83.961-4.9219-124.87-2.1211-8.2539 0.55859-16.559 1.1484-24.812 1.6016-3.4414 0.21484-7.7617 0.60156-12.707 1.0273-22.734 2.0391-69.973 6.293-81.535-9.1328-2.4805-3.332-7.1875-4.0117-10.52-1.5195-3.3086 2.5078-3.9609 7.1992-1.4805 10.535 16.559 22.066 63.719 17.879 94.895 15.094 4.7344-0.42578 8.9062-0.80078 12.215-1.0117 8.332-0.45313 16.641-1.0391 24.973-1.6016 39.973-2.7344 81.281-5.5352 121.07 1.9219l7.4531 1.3867c31.332 5.9336 61.48 11.613 92.574 11.613 12.055 0 24.266-0.85156 36.746-2.8945 45.652-7.4141 166.33-20.441 167.4-20.559 32.16-2.9727 62.895 3.9062 95.414 11.148 13.773 3.0547 28.027 6.2148 42.215 8.5195 44.719 7.2266 85.812-0.51953 129.29-8.7461l7.4805-1.3867c39.812-7.5078 81.148-4.668 121.12-1.9336 8.332 0.57422 16.613 1.1328 24.922 1.6133 3.332 0.19922 7.5078 0.57422 12.238 0.98828 31.199 2.8008 78.281 7.0273 94.895-15.094 2.4531-3.293 1.8008-8.0273-1.5078-10.492-3.332-2.5352-8.0273-1.8672-10.52 1.4805z"/>
</svg>
