<?xml version="1.0" encoding="UTF-8"?>
<svg width="1200pt" height="1200pt" version="1.1" viewBox="0 0 1200 1200" xmlns="http://www.w3.org/2000/svg">
 <path d="m100 808.68h48.176v27.551h-48.176z"/>
 <path d="m1051.8 808.68h48.176v27.551h-48.176z"/>
 <path d="m1032.9 692.25 46.535-12.461 7.125 26.602-46.535 12.461z"/>
 <path d="m984.36 584.6 41.734-24.086 13.777 23.871-41.734 24.086z"/>
 <path d="m929.22 512.72-19.48-19.48 34.074-34.074 19.48 19.48z"/>
 <path d="m837.8 437.98-23.852-13.77 24.086-41.723 23.852 13.77z"/>
 <path d="m716.08 335.93 26.633 7.1406-12.48 46.543-26.633-7.1406z"/>
 <path d="m586.2 322.44h27.551v48.176h-27.551z"/>
 <path d="m469.75 389.55-12.461-46.535 26.613-7.1289 12.461 46.535z"/>
 <path d="m362.12 438.06-24.109-41.723 23.863-13.789 24.109 41.723z"/>
 <path d="m270.76 512.7-34.07-34.059 19.477-19.484 34.07 34.059z"/>
 <path d="m201.82 608.44-41.738-24.086 13.77-23.863 41.738 24.086z"/>
 <path d="m159.96 718.81-46.531-12.477 7.1367-26.609 46.531 12.477z"/>
 <path d="m618.44 770.75c-5.8008-2.0742-11.949-3.3984-18.461-3.3984-30.438 0-55.113 24.676-55.113 55.102 0 30.449 24.676 55.113 55.113 55.113s55.102-24.676 55.102-55.113c0-6.9492-1.4141-13.523-3.7617-19.648l158.11-194.32z"/>
</svg>
