<?xml version="1.0" encoding="UTF-8"?>
<svg width="1200pt" height="1200pt" version="1.1" viewBox="0 0 1200 1200" xmlns="http://www.w3.org/2000/svg">
 <path d="m1114.7 587.48h-147.98c3-22.125 13.875-42.516 31.125-57.234l54.516-46.875-16.266-18.984-54.516 46.875c-22.734 19.5-36.891 46.734-40.125 76.266h-311.39l220.26-220.26c20.766 16.734 46.641 25.875 73.359 25.875 3 0 5.8594 0 8.8594-0.375l71.766-5.4844-1.875-24.891-71.766 5.4844c-22.641 1.6406-44.766-5.0156-62.484-18.516l104.62-104.62-17.625-17.625-104.62 104.62c-13.5-17.766-20.25-39.891-18.516-62.484l5.4844-71.766-24.891-1.875-5.4844 71.766c-2.25 29.859 6.9844 59.109 25.5 82.266l-220.13 220.13v-311.39c29.484-3.1406 56.766-17.391 76.266-40.125l46.875-54.516-18.984-16.266-46.875 54.516c-14.766 17.109-35.109 27.984-57.234 31.125v-147.84h-24.984v147.98c-22.125-3-42.516-13.875-57.234-31.125l-46.875-54.516-18.984 16.266 46.875 54.516c19.5 22.734 46.734 36.891 76.266 40.125v311.39l-220.13-220.13c18.609-23.016 27.75-52.359 25.5-82.266l-5.4844-71.766-24.891 1.875 5.4844 71.766c1.7344 22.5-5.0156 44.625-18.516 62.484l-104.62-104.62-17.625 17.625 104.62 104.62c-17.766 13.5-39.984 20.25-62.484 18.516l-71.766-5.4844-1.875 24.891 71.766 5.4844c3 0.23438 6 0.375 8.8594 0.375 26.766 0 52.641-9.1406 73.359-25.875l220.26 220.26h-311.39c-3.1406-29.391-17.391-56.766-40.125-76.266l-54.516-46.875-16.266 18.984 54.516 46.875c17.109 14.766 27.984 35.109 31.125 57.234h-148.22v24.984h147.98c-3 22.125-13.875 42.516-31.125 57.234l-54.516 46.875 16.266 18.984 54.516-46.875c22.734-19.5 36.891-46.734 40.125-76.266h311.39l-220.13 220.13c-23.016-18.609-52.266-27.75-82.266-25.5l-71.766 5.4844 1.875 24.891 71.766-5.4844c22.5-1.7344 44.625 5.0156 62.484 18.516l-104.62 104.62 17.625 17.625 104.62-104.62c13.5 17.766 20.25 39.891 18.516 62.484l-5.4844 71.766 24.891 1.875 5.4844-71.766c2.25-29.859-6.9844-59.25-25.641-82.266l220.13-220.13v311.39c-29.391 3.1406-56.766 17.391-76.266 40.125l-46.875 54.516 18.984 16.266 46.875-54.516c14.766-17.109 35.109-27.984 57.234-31.125v147.98h24.984v-147.98c22.125 3 42.516 13.875 57.234 31.125l46.875 54.516 18.984-16.266-46.875-54.516c-19.5-22.734-46.734-36.891-76.266-40.125v-311.39l220.26 220.26c-18.609 23.016-27.891 52.359-25.641 82.266l5.4844 71.766 24.891-1.875-5.4844-71.766c-1.7344-22.641 5.0156-44.766 18.516-62.484l104.62 104.62 17.625-17.625-104.62-104.62c17.766-13.5 39.891-20.25 62.484-18.516l71.766 5.4844 1.875-24.891-71.766-5.4844c-29.859-2.25-59.109 6.9844-82.266 25.5l-220.13-220.13h311.39c3.1406 29.484 17.391 56.766 40.125 76.266l54.516 46.875 16.266-18.984-54.516-46.875c-17.109-14.766-27.984-35.109-31.125-57.234h147.98v-24.984z"/>
</svg>
