<?xml version="1.0" encoding="UTF-8"?>
<svg width="1200pt" height="1200pt" version="1.1" viewBox="0 0 1200 1200" xmlns="http://www.w3.org/2000/svg">
 <path d="m1167.2 461.93c-2.6523-3.9609-6.4805-6.4414-11.066-7.1602-7.2539-1.1875-15.105 2.1211-23.613 7.625-0.054687-2.0664-0.90625-4.0781-2.5195-5.5078-2.5742-2.293-6.3594-2.5078-9.1875-0.625l-44.801 30.16c-2.1328 1.4531-3.3984 3.8789-3.3203 6.4531l0.28125 9.8672-233.36 115.18c-1.0273-9.7852-3.6914-19.332-8.5078-28.094-17.398-31.586-52.426-46.359-90.879-38.188l-3.4141 0.71875c-0.23828 0.027344-0.49219-0.13281-0.73438-0.066406-1.1875 0.23828-2.1875 0.66797-3.3477 0.93359l-2.7461 0.58594 0.09375 0.14844c-8.6133 2.293-16.602 5.1484-23.801 9.1211-39.281 21.586-60.281 64.535-50.426 102.45-16.094-3.1055-32.426-5.4141-48.922-5.7852-7.332-15.988-23.121-28.359-42.215-32.52-0.8125-0.21484-1.6406-0.25391-2.4531-0.13281l-97.121 10.668-302.36-0.60156c-73.812 1.3867-86.973 10.867-90.105 20-1.9453 5.6523 0.74609 11.078 4.2812 13.945 3.2383 2.6016 7.9609 2.1055 10.574-1.1211 2.0273-2.5078 2.1719-5.9727 0.61328-8.6016 4.332-2.5352 20.078-8.1992 74.734-9.2148l303.05 0.57422 96.719-10.586c11.508 2.7852 21.227 9.3594 27.266 17.961-1.3086 0.10547-2.6016 0.12109-3.9062 0.22656l-27.508 0.96094c-34.426-3.1211-67.785 4.2539-100.05 11.414-13.559 3.0391-27.559 6.1328-41.309 8.375-42.121 6.8516-81.988-0.71875-124.17-8.668l-7.4414-1.3984c-41.691-7.8281-83.961-4.9453-124.84-2.1211-8.3086 0.55859-16.586 1.1055-24.84 1.6016-3.4258 0.1875-7.7461 0.57422-12.652 1.0117-22.734 2.0391-70.027 6.293-81.586-9.1484-2.4805-3.3203-7.1992-4-10.508-1.4922-3.332 2.4805-3.9883 7.1992-1.5078 10.492 16.586 22.148 63.734 17.906 94.945 15.094 4.7188-0.41406 8.8789-0.80078 12.172-0.98828 8.332-0.48047 16.652-1.0391 25-1.6133 39.945-2.7344 81.254-5.5742 121.07 1.9219l7.3984 1.3984c31.387 5.9219 61.492 11.625 92.625 11.625 12.055 0 24.254-0.85156 36.719-2.8789 14.199-2.3203 28.426-5.4648 42.188-8.5469 32.574-7.2266 63.32-14.055 96.375-11.121l28.867-0.93359c32.121-2.8945 62.852 3.9219 95.441 11.133 13.746 3.0781 27.973 6.2383 42.16 8.5469 44.719 7.2539 85.828-0.53516 129.35-8.7461l7.4453-1.4648c39.773-7.4531 81.094-4.6406 121.04-1.8945 8.332 0.55859 16.668 1.1328 25 1.6133 3.2812 0.17188 7.4414 0.57422 12.172 0.96094 31.215 2.8281 78.348 7.0547 94.934-15.055 2.4922-3.332 1.8125-8.0547-1.4922-10.508-3.332-2.5078-8.0391-1.8281-10.508 1.4648-11.586 15.465-58.867 11.215-81.586 9.1484-4.9219-0.44141-9.2148-0.80078-12.668-1.0117-8.2656-0.48047-16.52-1.0547-24.828-1.6016-34.812-2.4141-70.68-4.7852-106.31-0.60156 67.508-42.48 225.39-141.83 225.71-142.03 4.4141-2.7734 11.691-4.332 18.707-5.8398 12.121-2.6133 24.68-5.3086 31.293-15.027 3.707-5.4648 7.375-9.0391 10.613-12.172 6.832-6.625 14.594-14.129 3.7812-30.316zm-440.24 218.21c-13.762-2.2383-27.773-5.3477-41.332-8.3477-5.5469-1.2539-11.16-2.4922-16.762-3.6523 0.86719-1.5469 1.1484-3.4258 0.65234-5.2656-7.8398-28.359 5.6797-60.414 32.508-80.426-2.0547 5.4648-2.1875 12.199 0.53516 18.828 4.0547 9.8945 12.586 16.027 20.668 15.734l33.852 65.719c-9.9609-0.17969-19.988-0.95312-30.121-2.5898zm46.641 2.3594c-0.12109-0.34766-0.12109-0.71875-0.29297-1.0391l-37.668-73.148c2.8789-5.6914 3.4531-13.227 0.39844-20.691-3.3594-8.2148-9.8398-13.828-16.586-15.32 4.6133-2.0273 9.3594-3.8398 14.641-5.2148 12.398 21.785 36.094 68 45.055 115.01-1.8672 0.10938-3.7188 0.30859-5.5469 0.40234zm379.36-201.03c-3.375 3.2656-8 7.7617-12.602 14.52-3.1719 4.7188-12.746 6.7617-21.988 8.7734-8.293 1.7852-16.895 3.6133-23.559 7.8008-0.90625 0.57422-255.77 160.96-255.77 160.96l0.09375 0.16016c-5.0781 0.94531-10.078 1.8516-15.094 2.707 8.8789-13.066 14.148-27.414 15.641-41.785l244.27-120.51c2.625-1.293 4.2656-4 4.1875-6.9453l-0.30859-10.547 17.68-11.934c-0.54688 2.5469 0.29297 5.2812 2.3203 7.1211 2.5078 2.2656 6.2539 2.5859 9.1055 0.74609 2.2539-1.4414 5.3203-3.8398 8.8516-6.6406 7.1484-5.6133 21.945-17.32 28.922-15.652 3.8867 5.7969 3.8867 5.7969-1.7422 11.223z"/>
 <path d="m1101.8 708.12c-11.559 15.414-58.852 11.188-81.559 9.1484-4.9219-0.44141-9.2266-0.83984-12.652-1.0273-8.2812-0.46484-16.559-1.0391-24.84-1.6133-40.879-2.7852-83.148-5.668-124.87 2.1328l-7.4258 1.4141c-42.188 7.9609-82.039 15.535-124.17 8.668-13.773-2.2383-27.801-5.3594-41.387-8.375-32.238-7.1484-65.602-14.547-100.12-11.414-1.1992 0.12109-122.27 13.238-168.32 20.707-42.078 6.8516-81.961-0.71875-124.16-8.668l-7.4258-1.3867c-41.668-7.8125-83.934-4.9336-124.79-2.1328-8.3086 0.54688-16.613 1.1211-24.906 1.6133-3.4258 0.19922-7.7188 0.57422-12.641 1.0273-22.707 2.0391-70.012 6.2812-81.586-9.1719-2.5078-3.3086-7.2148-3.9883-10.535-1.4805-3.3086 2.4805-3.9883 7.2148-1.4922 10.492 16.586 22.133 63.734 17.879 94.934 15.094 4.7344-0.39844 8.8945-0.80078 12.188-0.97266 8.332-0.48047 16.691-1.0547 25.055-1.6133 39.934-2.7461 81.227-5.5586 121 1.8945l7.4141 1.3984c31.387 5.9219 61.48 11.625 92.625 11.625 12.027 0 24.238-0.83984 36.719-2.8672 45.668-7.4258 166.32-20.48 167.41-20.602 32.039-2.9453 62.812 3.9062 95.375 11.121 13.773 3.0781 28.055 6.2383 42.238 8.5586 44.734 7.2539 85.84-0.53516 129.35-8.7344l7.4141-1.4258c39.828-7.4648 81.121-4.6406 121.08-1.9062 8.332 0.55859 16.668 1.1328 24.973 1.6133 3.3086 0.19922 7.4805 0.57422 12.188 0.98828 31.199 2.8125 78.332 7.0391 94.934-15.066 2.4922-3.332 1.8125-8.0391-1.4922-10.508-3.3438-2.5039-8.0352-1.8398-10.527 1.4688z"/>
</svg>
