<?xml version="1.0" encoding="UTF-8"?>
<svg width="1200pt" height="1200pt" version="1.1" viewBox="0 0 1200 1200" xmlns="http://www.w3.org/2000/svg">
 <path d="m779.2 594.4c-24.801-2.3984-49.602-1.6016-73.602 3.1992-12 3.1992-16.801-16-4.8008-18.398 26.398-7.1992 54.398-7.1992 80.801 0.80078 7.2031 2.3984 6.4023 15.199-2.3984 14.398zm-262.4-8.7969c-24.801-5.6016-52.801-9.6016-77.602-2.3984-3.1992 0.80078-5.6016 4.8008-4.8008 8 0.80078 2.3984 3.1992 4.8008 6.3984 4.8008 24.801 0.80078 48-1.6016 72 3.1992 8.8047 1.5977 12.805-11.203 4.0039-13.602zm124 232c2.3984-4-1.6016-10.398-6.3984-8.8008-9.6016 3.1992-16 8-26.398 4.8008-8-1.6016-15.199-7.1992-24-7.1992-1.6016 0-3.1992 1.6016-3.1992 3.1992v1.6016c9.5938 15.996 48.797 26.398 59.996 6.3984zm-135.2-150.4c-0.80078-2.3984-2.3984-4.8008-4-5.6016-4.8008-6.3984-13.602-8.8008-21.602-7.1992-14.398 4-17.602 24-8 34.398 12 12 30.398 2.3984 33.602-12 0.79688-3.1953 0.79688-6.3984 0-9.5977zm244.8-9.5977c-4.8008-3.1992-10.398-4.8008-16-4-2.3984 0-5.6016 0-8 1.6016-4 2.3984-7.1992 6.3984-8 11.199-0.80078 2.3984-0.80078 5.6016 0 8 0 0 0.80078 3.1992 0 2.3984-0.80078-0.80078 0 2.3984 0 0-1.6016 6.3984 2.3984 12.801 8.8008 14.398h0.80078c2.3984 1.6016 6.3984 1.6016 8.8008 0.80078 6.3984 0.80078 12.801-1.6016 17.602-6.3984 7.1992-8 6.3984-20-1.6016-27.199-1.6016-0.003906-1.6016-0.003906-2.4023-0.80078zm-54.398 200c-7.1992 6.3984-15.199 12.801-23.199 17.602-8 21.602-27.199 42.398-51.199 43.199-12 0-23.199-5.6016-31.199-14.398-5.6016-4.8008-10.398-10.398-14.398-16-16.801-4.8008-31.199-14.398-40.801-28-1.6016-2.3984 0.80078-4.8008 3.1992-4 24.801 7.1992 45.602 18.398 72.801 18.398 28-1.6016 54.398-12 76-28.801 7.1953-6.4023 15.195 6.3984 8.7969 12zm-47.199 28c-16 5.6016-33.602 8-50.398 6.3984 3.1992 3.1992 6.3984 6.3984 10.398 8.8008 19.199 9.5977 30.398-1.6016 40-15.199zm131.2-389.6c-0.80078 6.3984 8 12 11.199 4.8008 8-19.199 11.199-40 8.8008-60.801-1.6016-12.801-3.1992-26.398-16-32-1.6016-0.80078-4 0.80078-4 2.3984v2.3984c16 23.203 4 57.602 0 83.203zm81.602 211.2c-1.6016 10.398-5.6016 20-12 28-5.6016 8.8008-12 16.801-18.398 24.801-3.1992 41.602-4.8008 84-25.602 121.6-28.801 49.602-72.801 89.602-125.6 113.6-6.3984 16-12 32-16 48.801-3.1992 22.398-4 44.801-2.3984 68 0 3.1992-3.1992 6.3984-6.3984 6.3984s-5.6016-1.6016-6.3984-4.8008c-8.8008-38.398-4-78.398 15.199-112.8-14.398 4.8008-29.602 7.1992-44 8-2.3984 2.3984-6.3984 3.1992-9.6016 2.3984-20.801-3.1992-41.602-8.8008-61.602-16.801 22.398 29.602 23.199 84.801 19.199 116.8-0.80078 4-4 6.3984-7.1992 6.3984s-5.6016-3.1992-6.3984-6.3984c-2.3984-22.398 0-44.801-4-67.199-3.1992-20-12.801-36.801-18.398-56v-1.6016c-54.398-26.398-98.398-70.398-124-125.6-13.602-32-22.398-65.602-26.398-100.8-18.398-8-31.199-25.602-32-45.602-0.80078-16 8.8008-48.801 28-48-40-88-64-196-34.398-290.4 21.602-72 76.801-129.6 151.2-142.4-1.6016-10.398 1.6016-21.602 8.8008-29.602-20.801-15.199-26.398-44-12-65.602 24-38.398 80.801-40.801 120-40s98.398 8.8008 121.6 46.398c13.602 23.199 4 41.602-13.602 53.602 10.398 8 16.801 20.801 16 34.398 78.398 7.1992 132.8 73.602 151.2 148 23.199 96.801 5.6016 200.8-34.398 290.4-0.80078 1.6016-1.6016 3.1992-3.1992 4 9.5898 8.0078 14.391 19.207 12.793 32.008zm-481.6-97.598c1.6016-25.602 4.8008-49.602 8-72.801-1.6016-4-0.80078-8.8008 3.1992-12 12.801-12 26.398-22.398 42.398-31.199-28-33.602-20-116 25.602-132 4-1.6016 7.1992 4 4 6.3984-33.602 26.398-36.801 81.602-18.398 118.4v0.80078c53.602-25.602 118.4-30.398 177.6-28 82.398 4 160.8 30.398 222.4 86.398 4 3.1992 4.8008 9.6016 1.6016 14.398v4l-5.6016 72c27.199-68 37.602-141.6 29.602-213.6-9.6016-82.398-59.199-171.2-152.8-168-13.602 1.6055-15.203-15.996-5.6016-21.594 0.80078-10.398-5.6016-19.199-16-20.801-3.1992-0.80078-6.3984-2.3984-7.1992-5.6016-5.6016-4.8008-6.3984-12.801-1.6016-17.602 1.6016-1.6016 3.1992-3.1992 5.6016-4 44-15.199 1.6016-46.398-21.602-54.398-2.3984-0.80078-5.6016-1.6016-8-2.3984 2.3984 11.199 0.80078 23.199-5.6016 33.602-1.6016 2.3984-4 3.1992-6.3984 1.6016-1.6016-0.80078-2.3984-3.1992-2.3984-4.8008 1.6016-7.1992 2.3984-14.398 2.3984-21.602 0-4-0.80078-8-1.6016-11.199-10.398-1.6016-20.801-3.1992-31.199-3.1992h-10.398v1.6016c-2.3984 8-4 16-4.8008 24 0 2.3984-2.3984 4.8008-4.8008 4.8008-2.3984 0-4.8008-1.6016-4.8008-4-2.3984-9.6016 0-19.199 5.6016-26.398-7.1992 0-14.398 0.80078-20.801 1.6016-4.8008 11.199-6.3984 23.199-4.8008 34.398 0.80078 3.1992-0.80078 5.6016-4 6.3984-2.3984 0.80078-5.6016-0.80078-6.3984-4-4-12-2.3984-26.398 5.6016-36.801-12.801 1.6016-25.602 4.8008-37.602 9.6016-22.398 9.6016-24 28-5.6016 53.602 6.3984 2.3984 9.6016 8.8008 8 15.199 0 0.80078-0.80078 1.6016-0.80078 2.3984 0.80078 4.8008-1.6016 9.6016-6.3984 11.199-6.3984 2.3984-9.6016 9.6016-8 16 5.6016 4 7.1992 11.199 4 17.602-2.3984 3.1992-5.6016 5.6016-9.6016 5.6016-83.199 5.6016-137.6 76-152 153.6-14.398 66.391-3.1953 136.79 19.203 200.79zm0 134.4c-2.3984-22.398-3.1992-44.801-2.3984-66.398-2.3984 2.3984-5.6016 5.6016-7.1992 8.8008-5.6016 8-8 16.801-8 26.398-0.003906 12 6.3984 24 17.598 31.199zm441.6-178.4c0-1.6016 0.80078-3.1992 1.6016-4.8008-56-49.602-128-72-201.6-76-71.199-4-154.4 4-209.6 53.602-12 91.996-20 201.6 9.6016 291.2 28 79.199 95.199 137.6 176.8 155.2 1.6016-0.80078 4-0.80078 5.6016-0.80078 81.602 12 180-83.199 196-159.2 16.797-83.199 15.195-174.4 21.598-259.2zm15.199 115.2-4 54.398c2.3984-3.1992 4.8008-5.6016 6.3984-8.8008 12-17.598 11.199-33.598-2.3984-45.598z"/>
</svg>
