<svg width="24" height="24" viewBox="0 0 24 24" fill="none" xmlns="http://www.w3.org/2000/svg">
<path d="M2 16.5V14.5C2.63333 14.5 3.10833 14.3333 3.425 14C3.74167 13.6667 4.36667 13.5 5.3 13.5C6.23333 13.5 6.87917 13.6667 7.2375 14C7.59583 14.3333 8.06667 14.5 8.65 14.5C9.25 14.5 9.725 14.3333 10.075 14C10.425 13.6667 11.0667 13.5 12 13.5C12.9333 13.5 13.575 13.6667 13.925 14C14.275 14.3333 14.75 14.5 15.35 14.5C15.95 14.5 16.425 14.3333 16.775 14C17.125 13.6667 17.7667 13.5 18.7 13.5C19.6333 13.5 20.2583 13.6667 20.575 14C20.8917 14.3333 21.3667 14.5 22 14.5V16.5C21.0167 16.5 20.3708 16.3333 20.0625 16C19.7542 15.6667 19.3 15.5 18.7 15.5C18.1 15.5 17.6375 15.6667 17.3125 16C16.9875 16.3333 16.3333 16.5 15.35 16.5C14.4 16.5 13.7542 16.3333 13.4125 16C13.0708 15.6667 12.6 15.5 12 15.5C11.3667 15.5 10.8958 15.6667 10.5875 16C10.2792 16.3333 9.63333 16.5 8.65 16.5C7.66667 16.5 7.0125 16.3333 6.6875 16C6.3625 15.6667 5.9 15.5 5.3 15.5C4.7 15.5 4.24583 15.6667 3.9375 16C3.62917 16.3333 2.98333 16.5 2 16.5ZM6.9 11.4L10.225 8.075L9.225 7.075C8.675 6.525 8.09167 6.125 7.475 5.875C6.85833 5.625 6.1 5.5 5.2 5.5V3C6.45 3 7.48333 3.1375 8.3 3.4125C9.11667 3.6875 9.91667 4.21667 10.7 5L17.1 11.4C16.8167 11.5833 16.5417 11.7292 16.275 11.8375C16.0083 11.9458 15.7 12 15.35 12C14.75 12 14.275 11.8333 13.925 11.5C13.575 11.1667 12.9333 11 12 11C11.0667 11 10.425 11.1667 10.075 11.5C9.725 11.8333 9.25 12 8.65 12C8.3 12 7.99167 11.9458 7.725 11.8375C7.45833 11.7292 7.18333 11.5833 6.9 11.4ZM16.7 3C17.4 3 17.9917 3.24583 18.475 3.7375C18.9583 4.22917 19.2 4.81667 19.2 5.5C19.2 6.2 18.9583 6.79167 18.475 7.275C17.9917 7.75833 17.4 8 16.7 8C16 8 15.4083 7.75833 14.925 7.275C14.4417 6.79167 14.2 6.2 14.2 5.5C14.2 4.81667 14.4417 4.22917 14.925 3.7375C15.4083 3.24583 16 3 16.7 3Z" fill="#1F1F1F"/>
</svg>
